<svg xmlns="http://www.w3.org/2000/svg" xmlns:svg="http://www.w3.org/2000/svg" id="CombinedIcon" width="32" height="32" x="0" y="0" enable-background="new 0 0 100 100" version="1.1" viewBox="0 0 32 32" xml:space="preserve"><metadata id="metadata20"/><g id="gmarkerbase" transform="matrix(1.0632768,0,0,1.0632768,-1.0124294,-1.0124294)"><svg id="markerbase" width="32" height="32" x="0" y="0" class="injected-svg" docname="community.svg" enable-background="new 0 0 32 32" version="0.48.4 r9939" viewBox="0 0 32 32" xml:space="preserve"><metadata id="metadata19"/><path id="path3" d="M 16,1 C 24.284,1 31,7.716 31,16 31,24.284 24.284,31 16,31 7.716,31 1,24.284 1,16 1,7.716 7.716,1 16,1 Z" style="fill:#f39c12"/></svg></g><g id="gmarkericon" transform="translate(5,5)"><g id="g12" transform="scale(0.68)"><svg id="svg10" x="0" y="0" enable-background="new -11.364 3.414 100 93.273" version="1.1" viewBox="-11.364 3.414 100 93.273" xml:space="preserve"><path id="path8" fill="#fff" d="M74.399,3.414H2.873l-14.237,24.74v8.58c0,4.261,2.435,7.96,5.986,9.798v50.155h53.753V41.91 c1.861,3.482,5.529,5.855,9.739,5.855c4.219,0,7.887-2.373,9.748-5.855c1.853,3.482,5.521,5.855,9.739,5.855l0,0v48.922h5.048 V46.532c3.552-1.838,5.986-5.537,5.986-9.798v-8.58L74.399,3.414z M11.434,29.333L18.483,7.88h11.205l-2.334,21.329v6.133 c0,4.389-3.567,7.956-7.956,7.956c-4.389,0-7.956-3.567-7.956-7.956v-6.009H11.434z M43.623,65.096H-0.329V47.765 c4.219,0,7.886-2.373,9.74-5.855c1.861,3.482,5.529,5.855,9.747,5.855c4.21,0,7.878-2.373,9.74-5.855 c1.853,3.482,5.529,5.855,9.739,5.855c1.799,0,3.489-0.45,4.986-1.218V65.096L43.623,65.096z M65.831,35.342 c0,4.389-3.566,7.956-7.956,7.956c-4.389,0-7.956-3.567-7.956-7.956v-6.133L47.585,7.88H58.79l7.049,21.453v6.009H65.831z"/></svg></g></g></svg>