<svg xmlns="http://www.w3.org/2000/svg" xmlns:svg="http://www.w3.org/2000/svg" id="CombinedIcon" width="32" height="32" x="0" y="0" enable-background="new 0 0 100 100" version="1.1" viewBox="0 0 32 32" xml:space="preserve"><metadata id="metadata4606"/><g id="gmarkerbase" transform="matrix(1.0662174,0,0,1.0662174,-1.0594786,-1.0594786)"><svg id="markerbase" width="32" height="32" x="0" y="0" class="injected-svg" docname="community.svg" enable-background="new 0 0 32 32" version="0.48.4 r9939" viewBox="0 0 32 32" xml:space="preserve"><metadata id="metadata19"/><path id="path3" d="M 16,1 C 24.284,1 31,7.716 31,16 31,24.284 24.284,31 16,31 7.716,31 1,24.284 1,16 1,7.716 7.716,1 16,1 Z" style="fill:teal"/></svg></g><g id="gmarkericon" transform="translate(5,5)"><g id="g4598" transform="scale(0.68)"><svg id="svg4596" x="0" y="0" enable-background="new 0 0 72 72" version="1.1" viewBox="0 0 72 72" xml:space="preserve"><path id="path4594" fill="#fff" d="M52,47.8L52,47.8l0-24.3c0-0.1,0.1-0.2,0.1-0.2h4.4c0.1,0,0.2-0.2,0.1-0.3l-6.2-7c0,0-0.1-0.1-0.1-0.2V3.8 c0-0.1,0.1-0.2,0.1-0.2h0.8c0.1,0,0.1-0.1,0.1-0.2V1.6c0-0.1-0.1-0.2-0.1-0.2h-6.8c-0.1,0-0.1,0.1-0.1,0.2v1.8 c0,0.1,0.1,0.2,0.1,0.2h0.8c0.1,0,0.1,0.1,0.1,0.2V10c0,0.2-0.1,0.3-0.2,0.1L37.1,1C37,1,36.9,1,36.9,1L17.3,23 c-0.1,0.1,0,0.3,0.1,0.3h4.4c0.1,0,0.1,0.1,0.1,0.2v20.8c0,0.1-0.1,0.2-0.1,0.2c-10.1,2.3-18.2,6.8-20.8,8.4C0.9,53,1,53.3,1.2,53.3 c28.5-5,20.8,9.7,20.6,10.1c0,0,0,0,0,0c-3.4,7.9,2.1,5.5,2.3,5.4c0,0,0,0,0,0c12.9-7.7,43.3,1.1,46.8,2.2c0.1,0,0.2-0.1,0.2-0.3 C65.8,59,59.1,51.9,52,47.8z M31.6,43.2c-0.1,0-0.2-0.1-0.2-0.2V33c0-3.9,2.2-7.1,4.9-7.1c2.7,0,4.9,3.2,4.9,7.1v10.7 c0,0.1-0.1,0.2-0.2,0.2C37.9,43.3,34.7,43.1,31.6,43.2z"/></svg></g></g></svg>