<svg xmlns="http://www.w3.org/2000/svg" xmlns:svg="http://www.w3.org/2000/svg" id="CombinedIcon" width="32" height="32" x="0" y="0" enable-background="new 0 0 100 100" version="1.1" viewBox="0 0 32 32" xml:space="preserve"><metadata id="metadata4726"/><g id="gmarkerbase" transform="matrix(1.0632768,0,0,1.0632768,-1.0124294,-1.0124294)"><svg id="markerbase" width="32" height="32" x="0" y="0" class="injected-svg" docname="community.svg" enable-background="new 0 0 32 32" version="0.48.4 r9939" viewBox="0 0 32 32" xml:space="preserve"><metadata id="metadata19"/>n<path id="path3" d="M 16,1 C 24.284,1 31,7.716 31,16 31,24.284 24.284,31 16,31 7.716,31 1,24.284 1,16 1,7.716 7.716,1 16,1 Z" style="fill:#39e6aa"/>nn</svg></g><g id="gmarkericon" transform="matrix(1.22333,0,0,1.22333,2.4576273,2.6935593)"><g id="g4718" transform="scale(0.68)"><svg id="svg4716" width="100%" height="100%" x="0" y="0" enable-background="new 0 0 100 30.374" version="1.1" viewBox="0 0 100 30.374" xml:space="preserve"><g id="g4714"><path id="path4702" d="M 94.85,1.121 C 94.85,0.502 94.348,0 93.729,0 h -4.833 c -0.62,0 -1.122,0.502 -1.122,1.121 V 3.275 L 94.85,8.29 Z" style="fill:#fff"/><path id="path4704" d="m 12.958,16.227 h -1.753 c -0.229,0 -0.414,0.185 -0.414,0.416 v 1.213 c 0,0.23 0.186,0.415 0.414,0.415 h 1.753 c 0.229,0 0.414,-0.185 0.414,-0.415 v -1.213 c 0,-0.231 -0.185,-0.416 -0.414,-0.416 z" style="fill:#fff"/><path id="path4706" d="m 16.637,16.227 h -1.753 c -0.228,0 -0.414,0.185 -0.414,0.416 v 1.213 c 0,0.23 0.187,0.415 0.414,0.415 h 1.753 c 0.229,0 0.414,-0.185 0.414,-0.415 v -1.213 c 0,-0.231 -0.186,-0.416 -0.414,-0.416 z" style="fill:#fff"/><path id="path4708" d="m 20.315,16.227 h -1.753 c -0.229,0 -0.414,0.185 -0.414,0.416 v 1.213 c 0,0.23 0.186,0.415 0.414,0.415 h 1.753 c 0.229,0 0.414,-0.185 0.414,-0.415 v -1.213 c 0,-0.231 -0.184,-0.416 -0.414,-0.416 z" style="fill:#fff"/><path id="path4710" d="m 22.242,18.271 h 1.752 c 0.229,0 0.414,-0.185 0.414,-0.415 v -1.213 c 0,-0.23 -0.186,-0.416 -0.414,-0.416 h -1.752 c -0.23,0 -0.415,0.185 -0.415,0.416 v 1.213 c 0,0.23 0.185,0.415 0.415,0.415 z" style="fill:#fff"/><path id="path4712" d="M 98.882,27.502 H 94.618 V 13.205 h 3.174 c 0.463,0 0.653,-0.596 0.274,-0.864 L 84.42,2.504 C 83.628,1.943 82.866,1.641 81.706,1.641 c -1.159,0 -2.52,0.935 -2.52,0.935 h -58.92 c 0,0 -1.241,-0.935 -2.652,-0.935 -1.412,0 -1.857,0.506 -2.653,0.965 L 1.182,12.551 c -0.329,0.16 -0.215,0.654 0.15,0.654 H 5.209 V 27.503 H 1.12 C 0.502,27.503 0,28.005 0,28.624 v 0.63 c 0,0.619 0.502,1.121 1.12,1.121 h 97.762 c 0.618,0 1.118,-0.502 1.118,-1.121 v -0.63 c 0,-0.62 -0.5,-1.122 -1.118,-1.122 z m -73.094,0 H 9.041 c 0,-3.767 0,-7.536 0,-11.306 1.331,-1.417 2.937,-2.407 4.649,-2.992 1.035,-0.354 2.107,-0.554 3.189,-0.604 0.357,-0.016 0.714,-0.016 1.071,0 1.081,0.05 2.154,0.25 3.188,0.604 1.713,0.585 3.317,1.576 4.648,2.992 0.002,3.771 0.002,7.54 0.002,11.306 z M 27.03,13.241 H 24.749 L 17.586,8.423 10.423,13.241 H 8.141 c -0.268,0 -0.396,-0.327 -0.201,-0.51 l 9.101,-6.626 c 0.307,-0.287 0.784,-0.287 1.091,0 l 9.101,6.626 c 0.193,0.183 0.065,0.51 -0.203,0.51 z m 8.758,8.897 c 0,0.413 -0.334,0.747 -0.747,0.747 h -3.154 c -0.413,0 -0.747,-0.334 -0.747,-0.747 V 19.95 c 0,-0.412 0.334,-0.746 0.747,-0.746 h 3.154 c 0.413,0 0.747,0.334 0.747,0.746 z m 0,-4.863 c 0,0.413 -0.334,0.747 -0.747,0.747 h -3.154 c -0.413,0 -0.747,-0.333 -0.747,-0.747 v -2.187 c 0,-0.412 0.334,-0.747 0.747,-0.747 h 3.154 c 0.413,0 0.747,0.335 0.747,0.747 z m 5.734,4.863 c 0,0.413 -0.335,0.747 -0.747,0.747 h -3.156 c -0.412,0 -0.746,-0.334 -0.746,-0.747 V 19.95 c 0,-0.412 0.334,-0.746 0.746,-0.746 h 3.156 c 0.412,0 0.747,0.334 0.747,0.746 z m 0,-4.863 c 0,0.413 -0.335,0.747 -0.747,0.747 h -3.156 c -0.412,0 -0.746,-0.333 -0.746,-0.747 v -2.187 c 0,-0.412 0.334,-0.747 0.746,-0.747 h 3.156 c 0.412,0 0.747,0.335 0.747,0.747 z m 10.803,4.863 c 0,0.413 -0.335,0.747 -0.747,0.747 h -3.156 c -0.412,0 -0.746,-0.334 -0.746,-0.747 V 19.95 c 0,-0.412 0.334,-0.746 0.746,-0.746 h 3.156 c 0.412,0 0.747,0.334 0.747,0.746 z m 0,-4.863 c 0,0.413 -0.335,0.747 -0.747,0.747 h -3.156 c -0.412,0 -0.746,-0.333 -0.746,-0.747 v -2.187 c 0,-0.412 0.334,-0.747 0.746,-0.747 h 3.156 c 0.412,0 0.747,0.335 0.747,0.747 z m 5.734,4.863 c 0,0.413 -0.334,0.747 -0.748,0.747 h -3.155 c -0.412,0 -0.746,-0.334 -0.746,-0.747 V 19.95 c 0,-0.412 0.334,-0.746 0.746,-0.746 h 3.155 c 0.414,0 0.748,0.334 0.748,0.746 z m 0,-4.863 c 0,0.413 -0.334,0.747 -0.748,0.747 h -3.155 c -0.412,0 -0.746,-0.333 -0.746,-0.747 v -2.187 c 0,-0.412 0.334,-0.747 0.746,-0.747 h 3.155 c 0.414,0 0.748,0.335 0.748,0.747 z m 11.852,10.273 h -6.628 c 0,-3.867 0,-7.734 0,-11.602 1.795,-1.914 4.833,-1.914 6.628,0 0,3.867 0,7.735 0,11.602 z m 12.054,-5.41 c 0,0.413 -0.335,0.747 -0.747,0.747 h -3.155 c -0.412,0 -0.746,-0.334 -0.746,-0.747 V 19.95 c 0,-0.412 0.334,-0.746 0.746,-0.746 h 3.155 c 0.412,0 0.747,0.334 0.747,0.746 z m 0,-4.863 c 0,0.413 -0.335,0.747 -0.747,0.747 h -3.155 c -0.412,0 -0.746,-0.333 -0.746,-0.747 v -2.187 c 0,-0.412 0.334,-0.747 0.746,-0.747 h 3.155 c 0.412,0 0.747,0.335 0.747,0.747 z m 5.734,4.863 c 0,0.413 -0.335,0.747 -0.748,0.747 h -3.155 c -0.412,0 -0.746,-0.334 -0.746,-0.747 V 19.95 c 0,-0.412 0.334,-0.746 0.746,-0.746 h 3.155 c 0.413,0 0.748,0.334 0.748,0.746 z m 0,-4.863 c 0,0.413 -0.335,0.747 -0.748,0.747 h -3.155 c -0.412,0 -0.746,-0.333 -0.746,-0.747 v -2.187 c 0,-0.412 0.334,-0.747 0.746,-0.747 h 3.155 c 0.413,0 0.748,0.335 0.748,0.747 z m 4.229,-4.034 h -2.282 l -7.163,-4.818 -7.164,4.818 h -2.283 c -0.266,0 -0.396,-0.327 -0.198,-0.51 l 9.1,-6.626 c 0.307,-0.287 0.783,-0.287 1.09,0 l 9.102,6.626 c 0.192,0.183 0.063,0.51 -0.202,0.51 z" style="fill:#fff"/></g></svg></g></g></svg>