<svg xmlns="http://www.w3.org/2000/svg" xmlns:svg="http://www.w3.org/2000/svg" id="svg2" width="376.471" height="106.196" version="1.1" viewBox="0 0 376.471 106.196" xml:space="preserve"><metadata id="metadata8"/><defs id="defs6"><clipPath id="clipPath26" clipPathUnits="userSpaceOnUse"><path id="path24" d="M 0,994 H 1921 V 0 H 0 Z" style="clip-rule:evenodd"/></clipPath><clipPath id="clipPath32" clipPathUnits="userSpaceOnUse"><path id="path30" d="M 0,0 H 1920 V 1074 H 0 Z"/></clipPath><clipPath id="clipPath42" clipPathUnits="userSpaceOnUse"><path id="path40" d="M 0,0 H 1920 V 1074 H 0 Z"/></clipPath><clipPath id="clipPath86" clipPathUnits="userSpaceOnUse"><path id="path84" d="m 781,909 h 230 V 854 H 781 Z" style="clip-rule:evenodd"/></clipPath><clipPath id="clipPath92" clipPathUnits="userSpaceOnUse"><path id="path90" d="M 0,0 H 1920 V 1074 H 0 Z"/></clipPath><clipPath id="clipPath102" clipPathUnits="userSpaceOnUse"><path id="path100" d="m 781,206 h 460 V 151 H 781 Z" style="clip-rule:evenodd"/></clipPath><clipPath id="clipPath108" clipPathUnits="userSpaceOnUse"><path id="path106" d="M 0,0 H 1920 V 1074 H 0 Z"/></clipPath><clipPath id="clipPath118" clipPathUnits="userSpaceOnUse"><path id="path116" d="m 1011,909 h 230 v -55 h -230 z" style="clip-rule:evenodd"/></clipPath><clipPath id="clipPath124" clipPathUnits="userSpaceOnUse"><path id="path122" d="M 0,0 H 1920 V 1074 H 0 Z"/></clipPath><clipPath id="clipPath134" clipPathUnits="userSpaceOnUse"><path id="path132" d="M 0,0 H 1920 V 1074 H 0 Z"/></clipPath><clipPath id="clipPath160" clipPathUnits="userSpaceOnUse"><path id="path158" d="m 134.6609,1034.286 h 1.7589 c -0.6155,6.168 -5.5338,11.087 -11.7029,11.702 v -1.758 c 5.2044,-0.602 9.3421,-4.74 9.944,-9.944 z"/></clipPath><clipPath id="clipPath166" clipPathUnits="userSpaceOnUse"><path id="path164" d="M 0,0 H 1920 V 1074 H 0 Z"/></clipPath><clipPath id="clipPath176" clipPathUnits="userSpaceOnUse"><path id="path174" d="M 0,0 H 1920 V 1074 H 0 Z"/></clipPath><clipPath id="clipPath188" clipPathUnits="userSpaceOnUse"><path id="path186" d="m 112.1436,1031.656 h -1.759 c 0.6155,-6.168 5.5338,-11.088 11.7029,-11.703 v 1.759 c -5.2044,0.602 -9.3421,4.739 -9.9439,9.944 z"/></clipPath><clipPath id="clipPath194" clipPathUnits="userSpaceOnUse"><path id="path192" d="M 0,0 H 1920 V 1074 H 0 Z"/></clipPath><clipPath id="clipPath204" clipPathUnits="userSpaceOnUse"><path id="path202" d="M 0,0 H 1920 V 1074 H 0 Z"/></clipPath><clipPath id="clipPath216" clipPathUnits="userSpaceOnUse"><path id="path214" d="m 124.7169,1021.712 v -1.759 c 6.1691,0.615 11.0874,5.535 11.7029,11.703 h -1.7589 c -0.6019,-5.205 -4.7396,-9.342 -9.944,-9.944 z"/></clipPath><clipPath id="clipPath222" clipPathUnits="userSpaceOnUse"><path id="path220" d="M 0,0 H 1920 V 1074 H 0 Z"/></clipPath><clipPath id="clipPath232" clipPathUnits="userSpaceOnUse"><path id="path230" d="M 0,0 H 1920 V 1074 H 0 Z"/></clipPath><clipPath id="clipPath244" clipPathUnits="userSpaceOnUse"><path id="path242" d="m 122.0875,1044.23 v 1.758 c -6.1691,-0.615 -11.0874,-5.534 -11.7029,-11.702 h 1.759 c 0.6018,5.204 4.7395,9.342 9.9439,9.944 z"/></clipPath><clipPath id="clipPath250" clipPathUnits="userSpaceOnUse"><path id="path248" d="M 0,0 H 1920 V 1074 H 0 Z"/></clipPath><clipPath id="clipPath260" clipPathUnits="userSpaceOnUse"><path id="path258" d="M 0,0 H 1920 V 1074 H 0 Z"/></clipPath><clipPath id="clipPath278" clipPathUnits="userSpaceOnUse"><path id="path276" d="M 0,0 H 1920 V 1074 H 0 Z"/></clipPath><clipPath id="clipPath294" clipPathUnits="userSpaceOnUse"><path id="path292" d="M 0,0 H 1920 V 1074 H 0 Z"/></clipPath><clipPath id="clipPath310" clipPathUnits="userSpaceOnUse"><path id="path308" d="M 0,0 H 1920 V 1074 H 0 Z"/></clipPath><clipPath id="clipPath326" clipPathUnits="userSpaceOnUse"><path id="path324" d="M 0,0 H 1920 V 1074 H 0 Z"/></clipPath><clipPath id="clipPath342" clipPathUnits="userSpaceOnUse"><path id="path340" d="M 0,0 H 1920 V 1074 H 0 Z"/></clipPath><clipPath id="clipPath352" clipPathUnits="userSpaceOnUse"><path id="path350" d="M 0,0 H 1920 V 1074 H 0 Z"/></clipPath><clipPath id="clipPath406" clipPathUnits="userSpaceOnUse"><path id="path404" d="M 781,770 H 999 V 729 H 781 Z" style="clip-rule:evenodd"/></clipPath><clipPath id="clipPath412" clipPathUnits="userSpaceOnUse"><path id="path410" d="M 0,0 H 1920 V 1074 H 0 Z"/></clipPath><clipPath id="clipPath424" clipPathUnits="userSpaceOnUse"><path id="path422" d="m 781,700 h 460 V 659 H 781 Z" style="clip-rule:evenodd"/></clipPath><clipPath id="clipPath430" clipPathUnits="userSpaceOnUse"><path id="path428" d="M 0,0 H 1920 V 1074 H 0 Z"/></clipPath><clipPath id="clipPath442" clipPathUnits="userSpaceOnUse"><path id="path440" d="m 1023,770 h 218 v -41 h -218 z" style="clip-rule:evenodd"/></clipPath><clipPath id="clipPath448" clipPathUnits="userSpaceOnUse"><path id="path446" d="M 0,0 H 1920 V 1074 H 0 Z"/></clipPath><clipPath id="clipPath460" clipPathUnits="userSpaceOnUse"><path id="path458" d="M 0,0 H 1920 V 1074 H 0 Z"/></clipPath><clipPath id="clipPath492" clipPathUnits="userSpaceOnUse"><path id="path490" d="m 781,630 h 460 V 589 H 781 Z" style="clip-rule:evenodd"/></clipPath><clipPath id="clipPath498" clipPathUnits="userSpaceOnUse"><path id="path496" d="M 0,0 H 1920 V 1074 H 0 Z"/></clipPath><clipPath id="clipPath510" clipPathUnits="userSpaceOnUse"><path id="path508" d="m 781,561 h 460 V 520 H 781 Z" style="clip-rule:evenodd"/></clipPath><clipPath id="clipPath516" clipPathUnits="userSpaceOnUse"><path id="path514" d="M 0,0 H 1920 V 1074 H 0 Z"/></clipPath><clipPath id="clipPath528" clipPathUnits="userSpaceOnUse"><path id="path526" d="m 781,392 h 460 V 351 H 781 Z" style="clip-rule:evenodd"/></clipPath><clipPath id="clipPath534" clipPathUnits="userSpaceOnUse"><path id="path532" d="M 0,0 H 1920 V 1074 H 0 Z"/></clipPath><clipPath id="clipPath546" clipPathUnits="userSpaceOnUse"><path id="path544" d="m 781,323 h 460 V 282 H 781 Z" style="clip-rule:evenodd"/></clipPath><clipPath id="clipPath552" clipPathUnits="userSpaceOnUse"><path id="path550" d="M 0,0 H 1920 V 1074 H 0 Z"/></clipPath><clipPath id="clipPath564" clipPathUnits="userSpaceOnUse"><path id="path562" d="m 781,462 h 96.2664 V 421 H 781 Z" style="clip-rule:evenodd"/></clipPath><clipPath id="clipPath570" clipPathUnits="userSpaceOnUse"><path id="path568" d="M 0,0 H 1920 V 1074 H 0 Z"/></clipPath><clipPath id="clipPath582" clipPathUnits="userSpaceOnUse"><path id="path580" d="m 889,462 h 96.2664 V 421 H 889 Z" style="clip-rule:evenodd"/></clipPath><clipPath id="clipPath588" clipPathUnits="userSpaceOnUse"><path id="path586" d="M 0,0 H 1920 V 1074 H 0 Z"/></clipPath><clipPath id="clipPath600" clipPathUnits="userSpaceOnUse"><path id="path598" d="m 996,462 h 96.266 V 421 H 996 Z" style="clip-rule:evenodd"/></clipPath><clipPath id="clipPath606" clipPathUnits="userSpaceOnUse"><path id="path604" d="M 0,0 H 1920 V 1074 H 0 Z"/></clipPath><clipPath id="clipPath618" clipPathUnits="userSpaceOnUse"><path id="path616" d="M 0,0 H 1920 V 1074 H 0 Z"/></clipPath></defs><g id="g10" transform="matrix(1.3333333,0,0,-1.3333333,0,1432)"><text id="text4589" x="21.071" y="-1021.723" transform="scale(1,-1)" xml:space="preserve" style="font-style:normal;font-weight:400;font-size:40.35206223px;line-height:1.25;font-family:sans-serif;letter-spacing:-2.0400033px;word-spacing:0;fill:#000;fill-opacity:1;stroke:none;stroke-width:1.00880158"><tspan style="font-style:normal;font-variant:normal;font-weight:500;font-stretch:normal;font-family:Roboto;-inkscape-font-specification:'Roboto Medium';letter-spacing:-2.0400033px;fill:#fff;stroke-width:1.00880158" id="tspan4587" x="21.071" y="-1021.723"><tspan id="tspan4599" style="font-style:normal;font-variant:normal;font-weight:900;font-stretch:normal;font-family:Roboto;-inkscape-font-specification:'Roboto Heavy';fill:#ecb931;fill-opacity:1">7</tspan><tspan id="tspan4593" dx="-5.834 -1.544" style="font-style:normal;font-variant:normal;font-weight:500;font-stretch:normal;font-family:Roboto;-inkscape-font-specification:'Roboto Medium';letter-spacing:3px"><tspan id="tspan4601" dx=".477" style="font-style:normal;font-variant:normal;font-weight:500;font-stretch:normal;font-family:Roboto;-inkscape-font-specification:'Roboto Medium'">A</tspan>ğ</tspan><tspan id="tspan4591" dx="-.206 -.206" style="font-style:normal;font-variant:normal;font-weight:500;font-stretch:normal;font-family:Roboto;-inkscape-font-specification:'Roboto Medium';letter-spacing:3.03000021px">aç</tspan></tspan></text></g></svg>