<svg xmlns="http://www.w3.org/2000/svg" xmlns:svg="http://www.w3.org/2000/svg" id="CombinedIcon" width="32" height="32" x="0" y="0" enable-background="new 0 0 100 100" version="1.1" viewBox="0 0 32 32" xml:space="preserve"><metadata id="metadata20"/><g id="gmarkerbase" transform="matrix(1.0677966,0,0,1.0677966,-1.0847458,-1.0847458)" style="fill:#455a64"><svg id="markerbase" width="32" height="32" x="0" y="0" class="injected-svg" docname="community.svg" enable-background="new 0 0 32 32" version="0.48.4 r9939" viewBox="0 0 32 32" xml:space="preserve" style="fill:#455a64"><metadata id="metadata19"/><path id="path3" d="M 16,1 C 24.284,1 31,7.716 31,16 31,24.284 24.284,31 16,31 7.716,31 1,24.284 1,16 1,7.716 7.716,1 16,1 Z" style="fill:#455a64"/></svg></g><path id="path895" d="m 19.779869,17.736785 -0.881073,-1e-6 -0.312249,-0.301154 c 1.092975,-1.271421 1.750991,-2.922038 1.750991,-4.717642 1e-6,-4.0038677 -3.24547,-7.2493366 -7.249332,-7.2493366 -4.0038646,-3e-7 -7.2493341,3.2454695 -7.249335,7.2493366 -2e-7,4.003861 3.2454697,7.249331 7.249336,7.249332 1.795603,0 3.446221,-0.658016 4.717643,-1.750993 l 0.301154,0.31225 v 0.881072 l 5.576379,5.565285 1.661772,-1.661771 z m -6.69169,-1e-6 c -2.777057,1e-6 -5.018773,-2.241716 -5.0187731,-5.018767 8e-7,-2.7770579 2.2417171,-5.0187732 5.0187731,-5.0187733 2.777051,4e-7 5.018767,2.2417163 5.018768,5.0187723 0,2.777052 -2.241716,5.018768 -5.018768,5.018768 z" style="fill:#fff;stroke-width:1.11528182"/></svg>